<?xml version="1.0" standalone="no"?><!DOCTYPE svg PUBLIC "-//W3C//DTD SVG 1.1//EN" "http://www.w3.org/Graphics/SVG/1.1/DTD/svg11.dtd"><svg class="icon" width="200px" height="200.00px" viewBox="0 0 1024 1024" version="1.1" xmlns="http://www.w3.org/2000/svg"><path fill="#333333" d="M365.997 292.958c-7.383 0-13.39-6.006-13.39-13.39s6.006-13.39 13.39-13.39h288.746c7.383 0 13.39 6.006 13.39 13.39s-6.006 13.39-13.39 13.39h-288.746zM365.997 470.172c-7.383 0-13.39-6.006-13.39-13.39s6.006-13.39 13.39-13.39h288.746c7.383 0 13.39 6.006 13.39 13.39s-6.006 13.39-13.39 13.39h-288.746zM365.997 647.39c-7.383 0-13.39-6.006-13.39-13.39s6.006-13.39 13.39-13.39h288.746c7.383 0 13.39 6.006 13.39 13.39s-6.006 13.39-13.39 13.39h-288.746zM450.623 104.951c-10.593 0-19.212-8.619-19.212-19.212s8.619-19.212 19.212-19.212h118.757c10.593 0 19.212 8.619 19.212 19.212s-8.619 19.212-19.212 19.212h-118.757zM263.639 870.988c-45.359 0-82.26-36.901-82.26-82.26v-634.117c0-45.358 36.901-82.259 82.26-82.259l77.276 0.017c7.209 0.279 12.855 6.154 12.855 13.373 0 7.217-5.648 13.091-12.857 13.373l-0.428 0.017h-76.846c-30.591 0-55.482 24.887-55.482 55.481v634.117c0 30.591 24.889 55.482 55.482 55.482h493.456c30.591 0 55.482-24.889 55.482-55.482v-634.117c0-30.591-24.889-55.481-55.482-55.481l-77.635-0.037c-7.007-0.46-12.495-6.325-12.495-13.351s5.49-12.893 12.496-13.353l0.546-0.036h77.088c45.359 0 82.26 36.901 82.26 82.259v634.117c0 45.359-36.901 82.26-82.26 82.26h-493.458z" /></svg>